<svg width="21" height="21" viewBox="0 0 21 21" fill="none" xmlns="http://www.w3.org/2000/svg">
<path fill-rule="evenodd" clip-rule="evenodd" d="M12.5253 3.68441C14.9902 6.1493 14.9902 10.1457 12.5253 12.6106C10.0604 15.0755 6.06401 15.0755 3.59911 12.6106C1.13421 10.1457 1.13421 6.1493 3.59911 3.68441C6.06401 1.21951 10.0604 1.21951 12.5253 3.68441ZM13.8403 13.2019C16.4832 10.1865 16.3665 5.59568 13.4903 2.71942C10.4924 -0.278423 5.63198 -0.278423 2.63413 2.71942C-0.363719 5.71727 -0.363719 10.5777 2.63413 13.5756C5.51038 16.4518 10.1012 16.5685 13.1166 13.9256L19.6421 20.4512C19.842 20.651 20.166 20.651 20.3659 20.4512C20.5657 20.2513 20.5657 19.9273 20.3659 19.7274L13.8403 13.2019Z" fill="#C4C4C4"/>
</svg>
