<svg width="20" height="22" viewBox="0 0 52 59" fill="none" xmlns="http://www.w3.org/2000/svg">
<circle cx="26" cy="14" r="12.5" stroke="#C7C7C7" stroke-width="3"/>
<mask id="path-2-inside-1" fill="white">
<path fill-rule="evenodd" clip-rule="evenodd" d="M40.2303 58.1969C47.9623 58.1969 54.5197 51.5595 50.8347 44.7621C46.0577 35.9504 36.7277 29.9668 26.0002 29.9668C15.2727 29.9668 5.94273 35.9504 1.16575 44.7621C-2.51923 51.5595 4.03812 58.1969 11.7701 58.1969H40.2303Z"/>
</mask>
<path d="M26.0002 32.9668C35.5836 32.9668 43.9238 38.3089 48.1973 46.1919L53.4721 43.3323C48.1916 33.5919 37.8718 26.9668 26.0002 26.9668V32.9668ZM3.80313 46.1919C8.07663 38.3089 16.4168 32.9668 26.0002 32.9668V26.9668C14.1286 26.9668 3.80884 33.5919 -1.47163 43.3323L3.80313 46.1919ZM11.7701 61.1969H40.2303V55.1969H11.7701V61.1969ZM-1.47163 43.3323C-3.97732 47.9544 -2.94406 52.6442 -0.0936237 55.9781C2.66297 59.2022 7.09283 61.1969 11.7701 61.1969V55.1969C8.71538 55.1969 6.00058 53.8729 4.46675 52.079C3.02677 50.3948 2.62384 48.3672 3.80313 46.1919L-1.47163 43.3323ZM48.1973 46.1919C49.3766 48.3672 48.9737 50.3948 47.5337 52.079C45.9999 53.8729 43.2851 55.1969 40.2303 55.1969V61.1969C44.9076 61.1969 49.3375 59.2022 52.0941 55.9781C54.9445 52.6442 55.9778 47.9544 53.4721 43.3323L48.1973 46.1919Z" fill="#C7C7C7" mask="url(#path-2-inside-1)"/>
</svg>
