<svg width="24" height="24" viewBox="0 0 24 24" fill="none" xmlns="http://www.w3.org/2000/svg">
<path fill-rule="evenodd" clip-rule="evenodd" d="M1.70703 0.707092C1.31641 0.316711 0.683594 0.316711 0.292969 0.707092C-0.0976562 1.09772 -0.0976562 1.73077 0.292969 2.1214L10.5859 12.4144L0.707031 22.293C0.316406 22.6834 0.316406 23.3167 0.707031 23.7071C1.09766 24.0977 1.73096 24.0977 2.12109 23.7071L12 13.8284L21.5059 23.3345C21.8965 23.7252 22.5298 23.7252 22.9204 23.3345C23.311 22.9442 23.311 22.3109 22.9204 21.9205L13.4141 12.4141L23.3345 2.49396C23.7251 2.10333 23.7251 1.47028 23.3345 1.07965C22.9438 0.68927 22.311 0.68927 21.9204 1.07965L12 11.0001L1.70703 0.707092Z" fill="#303030"/>
</svg>
