<svg width="57" height="39" viewBox="0 0 57 39" fill="none" xmlns="http://www.w3.org/2000/svg">
<path d="M54.7907 0H2.2093C0.989138 0 0 0.95939 0 2.14286V36.8571C0 38.0406 0.989138 39 2.2093 39H54.7907C56.0109 39 57 38.0406 57 36.8571V2.14286C57 0.95939 56.0109 0 54.7907 0Z" fill="#303030"/>
<path d="M17.3867 28.7143L13.258 21.4457H12.0985V28.7143H7.26279V9.45944H15.3789C16.9436 9.45944 18.2728 9.7246 19.3662 10.2549C20.4785 10.7851 21.308 11.5166 21.8548 12.4492C22.4015 13.3634 22.6749 14.3875 22.6749 15.5212C22.6749 16.8012 22.2978 17.944 21.5437 18.9497C20.8085 19.9555 19.715 20.6686 18.2633 21.0892L22.8446 28.7143H17.3867ZM12.0985 18.1269H15.0961C15.9822 18.1269 16.642 17.9166 17.0756 17.496C17.5281 17.0755 17.7543 16.4812 17.7543 15.7132C17.7543 14.9817 17.5281 14.4057 17.0756 13.9852C16.642 13.5646 15.9822 13.3543 15.0961 13.3543H12.0985V18.1269Z" fill="#5FCF5C"/>
<path d="M30.8831 19.0594C30.8831 17.1577 31.3073 15.4663 32.1557 13.9851C33.004 12.4857 34.1823 11.3246 35.6905 10.5017C37.2176 9.66055 38.9426 9.23999 40.8656 9.23999C43.2222 9.23999 45.2395 9.84342 46.9172 11.0503C48.5954 12.2571 49.7168 13.9028 50.2824 15.9874H44.9659C44.57 15.1829 44.0046 14.5703 43.2693 14.1497C42.5529 13.7291 41.7328 13.5188 40.8091 13.5188C39.3197 13.5188 38.1131 14.0217 37.1893 15.0274C36.2655 16.0331 35.8037 17.3771 35.8037 19.0594C35.8037 20.7417 36.2655 22.0857 37.1893 23.0914C38.1131 24.0971 39.3197 24.6 40.8091 24.6C41.7328 24.6 42.5529 24.3897 43.2693 23.9691C44.0046 23.5486 44.57 22.936 44.9659 22.1314H50.2824C49.7168 24.216 48.5954 25.8617 46.9172 27.0686C45.2395 28.2571 43.2222 28.8514 40.8656 28.8514C38.9426 28.8514 37.2176 28.44 35.6905 27.6171C34.1823 26.776 33.004 25.6148 32.1557 24.1337C31.3073 22.6526 30.8831 20.9611 30.8831 19.0594Z" fill="#CF87F1"/>
<path d="M26.9535 8.57144V30" stroke="#FFF7F7"/>
</svg>
