<svg width="354" height="275" viewBox="0 0 354 275" fill="none" xmlns="http://www.w3.org/2000/svg">
<g clip-path="url(#clip0)">
<path d="M44.1073 212.328C166.781 123.975 228.456 86.8233 328.205 38.4627C307.008 49.774 298.626 55.171 292.137 59.3962C306.178 52.7448 320.19 46.3761 329.945 42.477C317.54 49.5788 310.993 53.3803 301.53 59.1833C307.418 56.8179 310.666 55.5762 315.416 54.9668C288.019 68.6736 297.338 64.9301 266.061 81.9408L305.128 64.8156C195.321 128.732 135.162 163.323 24.1175 234.189C33.8369 227.105 37.3976 225.336 51.5078 213.852C48.5101 212.237 38.2934 219.379 34.8025 220.86C46.8242 214.407 50.3002 210.285 57.128 206.414C48.4952 210.383 51.609 208.983 44.1073 212.328Z" fill="#E05643"/>
<path d="M322.722 182.253C184.02 122.114 115.837 98.9801 8.06416 73.0206C31.1873 79.5477 40.5278 83.0316 47.7697 85.7746C32.6326 82.2729 17.585 79.041 7.22217 77.3136C20.8563 81.6046 28.0634 83.9215 38.5485 87.5711C32.2898 86.5168 28.8526 85.9968 24.0809 86.4153C53.7725 93.9596 43.8701 92.2909 78.0561 102.235L36.234 93.8416C157.152 132.852 223.307 153.808 346.917 199.344C335.91 194.497 332.053 193.529 315.817 185.321C318.402 183.104 329.906 187.901 333.633 188.603C320.512 184.864 316.236 181.578 308.739 179.254C318.02 181.289 314.68 180.585 322.722 182.253Z" fill="#E05643"/>
</g>
<defs>
<clipPath id="clip0">
<rect width="329.965" height="240" fill="white" transform="translate(0 35.4126) rotate(-6.16099)"/>
</clipPath>
</defs>
</svg>
