<svg width="49" height="33" viewBox="0 0 49 33" fill="none" xmlns="http://www.w3.org/2000/svg">
<rect width="49" height="33" rx="3" fill="white"/>
<path d="M16.1239 26.4743L11.9952 19.2058H10.8357V26.4743H6V7.21948H14.1161C15.6809 7.21948 17.01 7.48464 18.1034 8.01491C19.2157 8.54518 20.0452 9.27662 20.592 10.2092C21.1387 11.1235 21.4121 12.1475 21.4121 13.2812C21.4121 14.5612 21.035 15.704 20.2809 16.7098C19.5457 17.7155 18.4522 18.4286 17.0006 18.8492L21.5818 26.4743H16.1239ZM10.8357 15.8869H13.8333C14.7194 15.8869 15.3792 15.6766 15.8128 15.2561C16.2653 14.8355 16.4915 14.2412 16.4915 13.4732C16.4915 12.7418 16.2653 12.1658 15.8128 11.7452C15.3792 11.3246 14.7194 11.1143 13.8333 11.1143H10.8357V15.8869Z" fill="#5FCF5C"/>
<path d="M23.6202 16.8194C23.6202 14.9177 24.0445 13.2263 24.8928 11.7451C25.7412 10.2457 26.9195 9.08457 28.4277 8.26171C29.9548 7.42056 31.6798 7 33.6028 7C35.9594 7 37.9766 7.60343 39.6544 8.81029C41.3326 10.0171 42.454 11.6629 43.0196 13.7474H37.7031C37.3072 12.9429 36.7418 12.3303 36.0065 11.9097C35.2901 11.4892 34.47 11.2789 33.5462 11.2789C32.0569 11.2789 30.8503 11.7817 29.9265 12.7874C29.0027 13.7932 28.5408 15.1372 28.5408 16.8194C28.5408 18.5017 29.0027 19.8457 29.9265 20.8514C30.8503 21.8572 32.0569 22.36 33.5462 22.36C34.47 22.36 35.2901 22.1497 36.0065 21.7291C36.7418 21.3086 37.3072 20.696 37.7031 19.8914H43.0196C42.454 21.976 41.3326 23.6217 39.6544 24.8286C37.9766 26.0171 35.9594 26.6114 33.6028 26.6114C31.6798 26.6114 29.9548 26.2 28.4277 25.3771C26.9195 24.536 25.7412 23.3749 24.8928 21.8937C24.0445 20.4126 23.6202 18.7211 23.6202 16.8194Z" fill="#CF87F1"/>
</svg>
